<mxfile host="app.diagrams.net" modified="2022-09-27T14:37:53.053Z" agent="5.0 (Macintosh; Intel Mac OS X 10_15_7) AppleWebKit/605.1.15 (KHTML, like Gecko) Version/15.1 Safari/605.1.15" etag="SwrDkBFyMChOblOvkg-1" version="20.3.6" type="github">
  <diagram id="6a731a19-8d31-9384-78a2-239565b7b9f0" name="Page-1">
    <mxGraphModel dx="2620" dy="1563" grid="1" gridSize="10" guides="1" tooltips="1" connect="1" arrows="1" fold="1" page="1" pageScale="1" pageWidth="1169" pageHeight="827" background="none" math="0" shadow="0">
      <root>
        <mxCell id="0" />
        <mxCell id="1" parent="0" />
        <mxCell id="XJvKfV6S47I9_wOl1pvC-1545" value="" style="edgeStyle=orthogonalEdgeStyle;rounded=0;orthogonalLoop=1;jettySize=auto;html=1;strokeWidth=8;" edge="1" parent="1" source="1515" target="XJvKfV6S47I9_wOl1pvC-1544">
          <mxGeometry relative="1" as="geometry" />
        </mxCell>
        <mxCell id="XJvKfV6S47I9_wOl1pvC-1547" value="" style="edgeStyle=orthogonalEdgeStyle;rounded=0;orthogonalLoop=1;jettySize=auto;html=1;strokeWidth=9;" edge="1" parent="1" source="1515" target="XJvKfV6S47I9_wOl1pvC-1546">
          <mxGeometry relative="1" as="geometry" />
        </mxCell>
        <mxCell id="XJvKfV6S47I9_wOl1pvC-1549" value="" style="edgeStyle=orthogonalEdgeStyle;rounded=0;orthogonalLoop=1;jettySize=auto;html=1;strokeWidth=9;" edge="1" parent="1" source="1515" target="XJvKfV6S47I9_wOl1pvC-1548">
          <mxGeometry relative="1" as="geometry" />
        </mxCell>
        <mxCell id="1515" value="半導體" style="ellipse;whiteSpace=wrap;html=1;shadow=0;fontFamily=Helvetica;fontSize=30;fontColor=#2F5B7C;align=center;strokeColor=#2F5B7C;strokeWidth=6;fillColor=#FFFFFF;fontStyle=1;gradientColor=none;" parent="1" vertex="1">
          <mxGeometry x="961" y="676.5" width="270" height="270" as="geometry" />
        </mxCell>
        <mxCell id="XJvKfV6S47I9_wOl1pvC-1544" value="積體電路" style="ellipse;whiteSpace=wrap;html=1;shadow=0;fontFamily=Helvetica;fontSize=30;align=center;strokeColor=#6c8ebf;strokeWidth=6;fillColor=#dae8fc;fontStyle=1;" vertex="1" parent="1">
          <mxGeometry x="1670" y="70" width="270" height="270" as="geometry" />
        </mxCell>
        <mxCell id="XJvKfV6S47I9_wOl1pvC-1546" value="分離式半導體" style="ellipse;whiteSpace=wrap;html=1;shadow=0;fontFamily=Helvetica;fontSize=30;align=center;strokeColor=#82b366;strokeWidth=6;fillColor=#d5e8d4;fontStyle=1;" vertex="1" parent="1">
          <mxGeometry x="961" y="1320" width="270" height="270" as="geometry" />
        </mxCell>
        <mxCell id="XJvKfV6S47I9_wOl1pvC-1548" value="光電半導體" style="ellipse;whiteSpace=wrap;html=1;shadow=0;fontFamily=Helvetica;fontSize=30;align=center;strokeColor=#d79b00;strokeWidth=6;fillColor=#ffe6cc;fontStyle=1;" vertex="1" parent="1">
          <mxGeometry x="270" y="80" width="270" height="270" as="geometry" />
        </mxCell>
      </root>
    </mxGraphModel>
  </diagram>
</mxfile>
